<svg xmlns="http://www.w3.org/2000/svg" id="Layer_1" height="512" viewBox="0 0 512 512" width="512" data-name="Layer 1"><g fill-rule="evenodd"><path d="m256 0c-141.158 0-256 114.841-256 256s114.84 256 256 256 256-114.839 256-256-114.84-256-256-256z" fill="#198754"/><path d="m373.426 483.435q1.839-.954 3.66-1.934l.03-.015.029-.016q2.912-1.567 5.774-3.207a256.8 256.8 0 0 0 27.581-18.277l.081-.062q1.189-.9 2.366-1.821l.269-.21q1.1-.858 2.19-1.728l.392-.313q1.017-.816 2.027-1.642l.513-.42q.948-.781 1.89-1.57l.693-.584q.84-.708 1.672-1.424l.755-.651q.555-.48 1.108-.964l.563-.5.741-.655q.8-.708 1.591-1.424l.845-.766q.708-.645 1.41-1.3.543-.5 1.084-1.008.576-.537 1.147-1.078.508-.483 1.017-.967a258.064 258.064 0 0 0 29.158-33.122l.048-.066q.938-1.27 1.86-2.552.908-1.262 1.8-2.533l.093-.132q.882-1.261 1.751-2.534l.066-.095.152-.223q.3-.438.592-.879v.006-.006l.259-.389.016-.024.017-.025.016-.024a254.285 254.285 0 0 0 33.05-70.531l-125.57-161.463 4.186 5.882 3.906 6.087 3.616 6.282 3.316 6.467 3.008 6.643 2.689 6.809 2.362 6.965 2.024 7.114 1.678 7.251 1.321 7.379.956 7.5.58 7.608.196 7.706-.2 7.707-.58 7.608-.956 7.5-1.321 7.378-1.678 7.251-2.024 7.113-2.362 6.966-.55 1.393-48.247-58.291-.545-.6-.6-.546-.65-.487-.7-.424-.739-.356-.776-.285-.81-.209-.839-.128-.865-.044h-10.144l-68.892-82.483-.545-.6-.6-.546-.65-.487-.7-.423-.739-.356-.776-.283-.811-.208-.839-.128-.865-.042-.864.043-.839.128-.81.208-.776.284-.74.355-.7.423-.651.486-.6.545-.544.6-.487.65-.423.7-.355.738-.285.776-.207.81-.128.839-.044.864v77.111l-77.114.006-.864.044-.839.128-.811.208-.776.284-.739.355-.7.423-.651.486-.6.545-.545.6-.486.651-.424.7-.355.738-.284.777-.209.81-.128.84-.043.865.043.864.128.839.209.81.285.776.355.739.424.7.486.65.545.6 129.584 139.112-.592.168-7.251 1.678-7.379 1.321-7.5.956-7.607.58-7.7.2-7.706-.203-7.608-.58-7.5-.956-7.379-1.321-7.251-1.678-7.113-2.024-6.966-2.362-6.809-2.689-6.642-3.008-6.468-3.316-6.281-3.616-6.087-3.906-5.882-4.186-5.669-4.456-5.444-4.718-5.213-4.97 145.772 146.894a254.033 254.033 0 0 0 47.08-12.081 254.649 254.649 0 0 0 28.743-12.453q.928-.464 1.843-.939z" fill="#166643"/><path d="m350.017 256a8.457 8.457 0 0 1 -8.454 8.456h-77.109v77.111a8.452 8.452 0 1 1 -16.9 0v-77.121h-77.115a8.449 8.449 0 1 1 0-16.9l77.114-.006v-77.109a8.45 8.45 0 0 1 16.9 0v77.106h77.112a8.454 8.454 0 0 1 8.449 8.463zm-94.017 150c82.711 0 150-67.294 150-150s-67.287-150.007-150-150-150 67.284-150 150 67.291 150 150 150z" fill="#f8f9fa"/></g></svg>